<svg width="13" height="13" viewBox="0 0 13 13" fill="none" xmlns="http://www.w3.org/2000/svg">
<path fill-rule="evenodd" clip-rule="evenodd" d="M6.25771 12.6636C9.5714 12.6555 12.2512 9.96273 12.2431 6.64903C12.2351 3.33533 9.54232 0.655561 6.22862 0.663592C2.91492 0.671623 0.235151 3.36442 0.243182 6.67812C0.251213 9.99181 2.94401 12.6716 6.25771 12.6636ZM6.24315 12.042C9.21358 12.042 11.6216 9.634 11.6216 6.66357C11.6216 3.69315 9.21358 1.28514 6.24315 1.28514C3.27273 1.28514 0.864722 3.69315 0.864722 6.66357C0.864722 9.634 3.27273 12.042 6.24315 12.042Z" fill="#FF7891"/>
<circle cx="6.24302" cy="6.66368" r="5.61509" fill="#FF7891" fill-opacity="0.2"/>
<path d="M10.2659 5.05805V8.58247C10.2659 8.60475 10.2652 8.62703 10.2637 8.6493C10.0883 8.96324 9.87725 9.25451 9.63619 9.51786L7.21647 10.9146C6.89648 10.9848 6.56424 11.0217 6.22331 11.0217C5.88238 11.0217 5.54995 10.9848 5.22996 10.9146L3.2414 9.76685L2.8106 9.51804C2.56934 9.25471 2.35829 8.96322 2.18292 8.6493C2.1814 8.62703 2.18066 8.60475 2.18066 8.58247V5.05805C2.18066 4.70429 2.36962 4.3775 2.67563 4.20044L5.72831 2.43822C6.03469 2.26115 6.41187 2.26115 6.71824 2.43822L9.16005 3.848L9.77093 4.20044C10.077 4.37752 10.2659 4.70429 10.2659 5.05805Z" fill="#DF284A"/>
<path d="M10.1407 4.57667L2.42228 9.03215C2.3364 8.90888 2.25654 8.78108 2.18292 8.6493C2.18292 8.64912 2.18292 8.64912 2.18292 8.64912C2.1814 8.62703 2.18066 8.60475 2.18066 8.58249V5.05805C2.18066 4.70429 2.36944 4.3775 2.67563 4.20044L5.72831 2.43822C6.0345 2.26115 6.41167 2.26115 6.71806 2.43822L9.16005 3.848L9.77093 4.20044C9.92856 4.29162 10.055 4.42281 10.1407 4.57667Z" fill="#FF7891"/>
<path d="M10.2658 5.05808V8.5825C10.2658 8.60478 10.265 8.62705 10.2635 8.64913C10.2635 8.64931 10.2635 8.64931 10.2635 8.64931C10.1931 8.77522 10.117 8.89754 10.0357 9.01572L6.24316 6.82649L10.1406 4.57666C10.2214 4.72168 10.2658 4.88668 10.2658 5.05808Z" fill="#FA5C79"/>
<path d="M7.49622 7.2677C7.28366 7.65055 6.87536 7.90958 6.40635 7.90958C5.71827 7.90958 5.16048 7.35179 5.16048 6.66371C5.16048 5.97563 5.71827 5.41784 6.40635 5.41784C6.86628 5.41784 7.26782 5.66701 7.48377 6.03765L8.58533 5.40173C8.14981 4.65085 7.33688 4.146 6.40635 4.146C5.01591 4.146 3.88867 5.27299 3.88867 6.66368C3.88867 8.05412 5.01593 9.18136 6.40635 9.18136C7.34595 9.18136 8.16536 8.66666 8.59778 7.90357L7.49622 7.2677Z" fill="#F5F5F5"/>
</svg>
