<svg version="1.1" xmlns="http://www.w3.org/2000/svg" width="13px" height="13px" viewBox="0 0 832 1024">
<path fill="#DF284A" d="M64 512h64c35.346 0 64 28.654 64 64v384c0 35.346-28.654 64-64 64h-64c-35.346 0-64-28.654-64-64v-384c0-35.346 28.654-64 64-64z">
</path>
<path fill="#DF284A" fill-opacity="0.2" d="M384 256h64c35.346 0 64 28.654 64 64v640c0 35.346-28.654 64-64 64h-64c-35.346 0-64-28.654-64-64v-640c0-35.346 28.654-64 64-64z"></path>
<path fill="#DF284A" fill-opacity="0.2" d="M704 0h64c35.346 0 64 28.654 64 64v896c0 35.346-28.654 64-64 64h-64c-35.346 0-64-28.654-64-64v-896c0-35.346 28.654-64 64-64z">
</path></svg>