<svg width="17" height="17" viewBox="0 0 17 17" fill="none" xmlns="http://www.w3.org/2000/svg">
<circle cx="8.13299" cy="8.13299" r="8.13299" fill="#DF3A3A"/>
<path d="M11.4185 8.50286L8.98168 7.09599L8.46336 7.99375C8.09591 8.6302 7.27913 8.84905 6.64268 8.4816C6.00623 8.11414 5.78738 7.29737 6.15483 6.66092L7.28033 4.71149L5.87892 4.73602C5.46307 4.74174 5.08045 4.96758 4.87312 5.32669L4.43532 6.08498L2.72519 6.08517C2.39846 6.08463 2.13208 6.34979 2.13315 6.67745L2.13281 9.63987C2.13228 9.9666 2.39836 10.2314 2.7251 10.2319L4.93532 10.2319L7.12521 11.4962C7.69113 11.823 8.41687 11.6285 8.7436 11.0626L9.0001 11.2107C9.28386 11.3745 9.64546 11.2776 9.80929 10.9938L10.4017 9.96784L10.5299 10.0419C10.7431 10.165 11.0137 10.0925 11.1368 9.87927L11.5811 9.10976C11.7042 8.89654 11.6317 8.62596 11.4185 8.50286ZM14.1325 9.27036L14.1328 6.30794C14.1333 5.98121 13.8673 5.71643 13.5405 5.7159L11.3303 5.71593L9.69189 4.76999C9.49951 4.65892 9.28048 4.60513 9.05864 4.61172L8.32814 4.63671C8.12377 4.64269 7.93865 4.75598 7.83684 4.93233L6.66784 6.9571C6.46329 7.3114 6.58457 7.76404 6.93887 7.96859C7.29316 8.17314 7.7458 8.05186 7.95035 7.69756L8.76486 6.28679L11.7147 7.98986C12.21 8.27586 12.3801 8.91057 12.0941 9.40594L11.8303 9.86284L13.5404 9.86265C13.8681 9.86158 14.1319 9.5971 14.1325 9.27036Z" fill="white"/>
</svg>
